<?xml version="1.0" encoding="utf-8"?>
<!DOCTYPE svg PUBLIC "-//W3C//DTD SVG 1.1//EN" "http://www.w3.org/Graphics/SVG/1.1/DTD/svg11.dtd">
<svg version="1.1" id="Layer_1" xmlns="http://www.w3.org/2000/svg" xmlns:xlink="http://www.w3.org/1999/xlink" x="0px" y="0px" viewBox="0 0 169.344 130" enable-background="new 0 0 169.344 130" xml:space="preserve">
<g>
	<g>
		<path fill="#EF5A45" d="M130.019,121.773H111.56c-0.666,0-1.21-0.546-1.21-1.213v-4.502c0-0.667-0.545-1.213-1.21-1.213H83.31
			c-0.666,0-1.211,0.546-1.211,1.213v4.502c0,0.667-0.545,1.213-1.211,1.213H67.012c-0.666,0-1.211,0.546-1.211,1.213v5.208
			c0,0.667,0.544,1.213,1.211,1.213h63.007c0.666,0,1.21-0.546,1.21-1.213v-5.208C131.229,122.319,130.685,121.773,130.019,121.773z
			 M161.032,0H29.313c-4.583,0-8.311,3.736-8.311,8.329c0,0,0,15.882,0,21.724c0,2.872-0.213,3.278,1.71,3.278h3.297
			c1.614,0,1.283-0.406,1.283-3.332c0-5.829,0-21.671,0-21.671c0-1.098,0.926-2.026,2.021-2.026h131.719
			c1.095,0,2.021,0.928,2.021,2.026v81.314H69.145c0,0-3.31-0.006-3.31,4.282v10.171c0,4.282,3.417,4.282,3.417,4.282h91.779
			c4.583,0,8.312-3.736,8.312-8.328V8.329C169.344,3.737,165.615,0,161.032,0z M95.173,101.188c-2.069,0-3.746-1.68-3.746-3.752
			c0-2.072,1.677-3.753,3.746-3.753c2.067,0,3.744,1.681,3.744,3.753C98.917,99.508,97.24,101.188,95.173,101.188z M53.014,40.771
			H5.364C2.405,40.771,0,43.182,0,46.146v78.479C0,127.588,2.405,130,5.364,130h47.65c2.957,0,5.364-2.412,5.364-5.375V46.146
			C58.378,43.182,55.971,40.771,53.014,40.771z M23.311,46.253h11.755c0.561,0,1.016,0.455,1.016,1.019
			c0,0.562-0.455,1.018-1.016,1.018H23.311c-0.562,0-1.016-0.456-1.016-1.018C22.295,46.708,22.75,46.253,23.311,46.253z
			 M29.118,126.224c-1.533,0-2.776-1.245-2.776-2.782c0-1.536,1.243-2.782,2.776-2.782c1.533,0,2.776,1.245,2.776,2.782
			C31.894,124.979,30.651,126.224,29.118,126.224z M53.769,118.048c0,0.717-0.573,1.304-1.273,1.304H5.883
			c-0.7,0-1.273-0.587-1.273-1.304V52.836c0-0.717,0.573-1.304,1.273-1.304h46.614c0.7,0,1.273,0.587,1.273,1.304V118.048z"/>
	</g>
</g>
</svg>
